<svg xmlns="http://www.w3.org/2000/svg" xmlns:inkscape="http://www.inkscape.org/namespaces/inkscape" xmlns:sodipodi="http://sodipodi.sourceforge.net/DTD/sodipodi-0.0.dtd" xmlns:xlink="http://www.w3.org/1999/xlink" width="1024.0" height="1024.0" viewBox="0 0 1024.0 1024.0" id="svg9557"><defs><filter x="-50%" y="-50%" width="200%" height="200%" id="filter1007" data-fx="[{&quot;kind&quot;:&quot;blur&quot;,&quot;params&quot;:{&quot;std_deviation&quot;:60.0}}]"><feGaussianBlur in="SourceGraphic" stdDeviation="60.0" result="e0"/><feMerge><feMergeNode in="e0"/></feMerge></filter><linearGradient x1="0.0" y1="0.0" x2="1024.0" y2="1024.0" gradientUnits="userSpaceOnUse" id="linearGradient5421" inkscape:label="prompt-fade"><stop offset="0.0" style="stop-color:#FFFFFF;stop-opacity:1.0"/><stop offset="0.42" style="stop-color:#FFFFFF;stop-opacity:1.0"/><stop offset="0.62" style="stop-color:#000000;stop-opacity:1.0"/><stop offset="1.0" style="stop-color:#000000;stop-opacity:1.0"/></linearGradient><linearGradient x1="0.0" y1="0.0" x2="1024.0" y2="1024.0" gradientUnits="userSpaceOnUse" id="linearGradient3230" inkscape:label="bubble-fade"><stop offset="0.0" style="stop-color:#000000;stop-opacity:1.0"/><stop offset="0.42" style="stop-color:#000000;stop-opacity:1.0"/><stop offset="0.62" style="stop-color:#FFFFFF;stop-opacity:1.0"/><stop offset="1.0" style="stop-color:#FFFFFF;stop-opacity:1.0"/></linearGradient><mask id="mask5819" inkscape:label="prompt-mask"><rect x="0.0" y="0.0" width="1024.0" height="1024.0" id="rect1756" inkscape:label="prompt-mask-rect" data-category="shape" data-prim="rect" style="fill:url(#linearGradient5421)"/></mask><mask id="mask9310" inkscape:label="bubble-mask"><rect x="0.0" y="0.0" width="1024.0" height="1024.0" id="rect7748" inkscape:label="bubble-mask-rect" data-category="shape" data-prim="rect" style="fill:url(#linearGradient1976)"/></mask><linearGradient x1="0.0" y1="0.0" x2="1024.0" y2="1024.0" gradientUnits="userSpaceOnUse" id="linearGradient1976" inkscape:label="bubble-fade2"><stop offset="0.0" style="stop-color:#000000;stop-opacity:1.0"/><stop offset="0.46" style="stop-color:#000000;stop-opacity:1.0"/><stop offset="0.75" style="stop-color:#FFFFFF;stop-opacity:1.0"/><stop offset="1.0" style="stop-color:#FFFFFF;stop-opacity:1.0"/></linearGradient><clipPath id="clipPath517" inkscape:label="icon-squircle2"><path d="M 656 0 c 128.812 0 193.218 0 242.418 25.068 a 230 230 0 0 1 100.514 100.514 c 25.068 49.2 25.068 113.606 25.068 242.418 L 1024 656 c 0 128.812 0 193.218 -25.068 242.418 a 230 230 0 0 1 -100.514 100.514 c -49.2 25.068 -113.606 25.068 -242.418 25.068 L 368 1024 c -128.812 0 -193.218 0 -242.418 -25.068 a 230 230 0 0 1 -100.514 -100.514 c -25.068 -49.2 -25.068 -113.606 -25.068 -242.418 L 0 368 c 0 -128.812 0 -193.218 25.068 -242.418 a 230 230 0 0 1 100.514 -100.514 c 49.2 -25.068 113.606 -25.068 242.418 -25.068 Z" data-squircle="{&quot;x&quot;:0.0,&quot;y&quot;:0.0,&quot;width&quot;:1024.0,&quot;height&quot;:1024.0,&quot;radius&quot;:230.0,&quot;smoothness&quot;:0.6}" id="squircle577" inkscape:label="icon-mask2" data-category="shape" data-prim="squircle" style="fill:#000000"/></clipPath></defs><g inkscape:label="icon-art" id="g2269" clip-path="url(#clipPath517)"><rect x="0.0" y="0.0" width="1024.0" height="1024.0" id="rect7073" inkscape:label="bg" data-category="shape" data-prim="rect" style="fill:#131420"/><polygon points="1184.0,-160.0 1184.0,1184.0 -160.0,1184.0" id="polygon3440" inkscape:label="app-zone" data-category="shape" data-prim="polygon" style="fill:#2E3658;filter:url(#filter1007)"/><g inkscape:label="prompt-group" id="g895" mask="url(#mask5819)" transform="matrix(1.14 0 0 1.14 -86.2 -165.86)"><polyline points="150,288 258,368 150,448" id="polyline5529" inkscape:label="prompt-caret" data-category="connector" data-prim="polyline" style="fill:none;stroke:#7AA2F7;stroke-linecap:round;stroke-linejoin:round;stroke-width:42.0"/><path d="M 578 346 c 0 0 0 0 0 0 a 22 22 0 0 1 22 22 c 0 0 0 0 0 0 L 600 368 c 0 0 0 0 0 0 a 22 22 0 0 1 -22 22 c 0 0 0 0 0 0 L 322 390 c 0 0 0 0 -0 -0 a 22 22 0 0 1 -22 -22 c -0 -0 -0 -0 -0 -0 L 300 368 c 0 -0 0 -0 0 -0 a 22 22 0 0 1 22 -22 c 0 -0 0 -0 0 -0 Z" data-pill="{&quot;x&quot;:300.0,&quot;y&quot;:346.0,&quot;width&quot;:300.0,&quot;height&quot;:44.0,&quot;smoothness&quot;:0.0}" id="pill4004" inkscape:label="cmd-line" data-category="shape" data-prim="pill" style="fill:#7982A9"/><path d="M 315 500 c 0 0 0 0 0 0 a 15 15 0 0 1 15 15 c 0 0 0 0 0 0 L 330 515 c 0 0 0 0 0 0 a 15 15 0 0 1 -15 15 c 0 0 0 0 0 0 L 165 530 c 0 0 0 0 -0 -0 a 15 15 0 0 1 -15 -15 c -0 -0 -0 -0 -0 -0 L 150 515 c 0 -0 0 -0 0 -0 a 15 15 0 0 1 15 -15 c 0 -0 0 -0 0 -0 Z" data-pill="{&quot;x&quot;:150.0,&quot;y&quot;:500.0,&quot;width&quot;:180.0,&quot;height&quot;:30.0,&quot;smoothness&quot;:0.0}" id="pill2683" inkscape:label="out-line1" data-category="shape" data-prim="pill" style="fill:#565F89"/><path d="M 595 500 c 0 0 0 0 0 0 a 15 15 0 0 1 15 15 c 0 0 0 0 0 0 L 610 515 c 0 0 0 0 0 0 a 15 15 0 0 1 -15 15 c 0 0 0 0 0 0 L 365 530 c 0 0 0 0 -0 -0 a 15 15 0 0 1 -15 -15 c -0 -0 -0 -0 -0 -0 L 350 515 c 0 -0 0 -0 0 -0 a 15 15 0 0 1 15 -15 c 0 -0 0 -0 0 -0 Z" data-pill="{&quot;x&quot;:350.0,&quot;y&quot;:500.0,&quot;width&quot;:260.0,&quot;height&quot;:30.0,&quot;smoothness&quot;:0.0}" id="pill9970" inkscape:label="out-line2" data-category="shape" data-prim="pill" style="fill:#414A6B"/><path d="M 465 580 c 0 0 0 0 0 0 a 15 15 0 0 1 15 15 c 0 0 0 0 0 0 L 480 595 c 0 0 0 0 0 0 a 15 15 0 0 1 -15 15 c 0 0 0 0 0 0 L 195 610 c 0 0 0 0 -0 -0 a 15 15 0 0 1 -15 -15 c -0 -0 -0 -0 -0 -0 L 180 595 c 0 -0 0 -0 0 -0 a 15 15 0 0 1 15 -15 c 0 -0 0 -0 0 -0 Z" data-pill="{&quot;x&quot;:180.0,&quot;y&quot;:580.0,&quot;width&quot;:300.0,&quot;height&quot;:30.0,&quot;smoothness&quot;:0.0}" id="pill8305" inkscape:label="out-line3" data-category="shape" data-prim="pill" style="fill:#565F89"/></g><g inkscape:label="bubble-group" id="g5881" mask="url(#mask9310)" transform="matrix(1.16 0 0 1.16 -116 -102.24)"><g inkscape:label="green-card" id="g5129" transform="translate(-35, 78)"><path d="M 879.2 560 c 21.282 0 31.923 0 40.052 4.142 a 38 38 0 0 1 16.607 16.607 c 4.142 8.129 4.142 18.77 4.142 40.052 L 940 744.2 c 0 21.282 0 31.923 -4.142 40.052 a 38 38 0 0 1 -16.607 16.607 c -8.129 4.142 -18.77 4.142 -40.052 4.142 L 565.8 805 c -21.282 0 -31.923 0 -40.052 -4.142 a 38 38 0 0 1 -16.607 -16.607 c -4.142 -8.129 -4.142 -18.77 -4.142 -40.052 L 505 620.8 c 0 -21.282 0 -31.923 4.142 -40.052 a 38 38 0 0 1 16.607 -16.607 c 8.129 -4.142 18.77 -4.142 40.052 -4.142 Z" data-squircle="{&quot;x&quot;:505.0,&quot;y&quot;:560.0,&quot;width&quot;:435.0,&quot;height&quot;:245.0,&quot;radius&quot;:38.0,&quot;smoothness&quot;:0.6}" id="squircle254" inkscape:label="bash-card-bg" data-category="shape" data-prim="squircle" style="fill:#2C3A66;stroke:#3E4E82;stroke-width:3.0"/><circle cx="553.0" cy="618.0" r="27.0" id="circle9905" inkscape:label="check-ring" data-category="shape" data-prim="circle" style="fill:none;stroke:#B6F06A;stroke-width:9.0"/><polyline points="539,619 550,631 569,605" id="polyline2523" inkscape:label="check-mark" data-category="connector" data-prim="polyline" style="fill:none;stroke:#B6F06A;stroke-linecap:round;stroke-linejoin:round;stroke-width:9.0"/><path d="M 749 602 c 0 0 0 0 0 0 a 16 16 0 0 1 16 16 c 0 0 0 0 0 0 L 765 618 c 0 0 0 0 0 0 a 16 16 0 0 1 -16 16 c 0 0 0 0 0 0 L 616 634 c 0 0 0 0 -0 -0 a 16 16 0 0 1 -16 -16 c -0 -0 -0 -0 -0 -0 L 600 618 c 0 -0 0 -0 0 -0 a 16 16 0 0 1 16 -16 c 0 -0 0 -0 0 -0 Z" data-pill="{&quot;x&quot;:600.0,&quot;y&quot;:602.0,&quot;width&quot;:165.0,&quot;height&quot;:32.0,&quot;smoothness&quot;:0.0}" id="pill6161" inkscape:label="bash-title" data-category="shape" data-prim="pill" style="fill:#C0CAF5;fill-opacity:0.9"/><path d="M 877 678 c 0 0 0 0 0 0 a 13 13 0 0 1 13 13 c 0 0 0 0 0 0 L 890 691 c 0 0 0 0 -0 0 a 13 13 0 0 1 -13 13 c -0 0 -0 0 -0 0 L 553 704 c -0 0 -0 0 -0 -0 a 13 13 0 0 1 -13 -13 c -0 -0 -0 -0 -0 -0 L 540 691 c 0 -0 0 -0 0 -0 a 13 13 0 0 1 13 -13 c 0 -0 0 -0 0 -0 Z" data-pill="{&quot;x&quot;:540.0,&quot;y&quot;:678.0,&quot;width&quot;:350.0,&quot;height&quot;:26.0,&quot;smoothness&quot;:0.0}" id="pill578" inkscape:label="bash-line1" data-category="shape" data-prim="pill" style="fill:#565F89"/><path d="M 752 722 c 0 0 0 0 0 0 a 13 13 0 0 1 13 13 c 0 0 0 0 0 0 L 765 735 c 0 0 0 0 0 0 a 13 13 0 0 1 -13 13 c 0 0 0 0 0 0 L 553 748 c 0 0 0 0 -0 -0 a 13 13 0 0 1 -13 -13 c -0 -0 -0 -0 -0 -0 L 540 735 c 0 -0 0 -0 0 -0 a 13 13 0 0 1 13 -13 c 0 -0 0 -0 0 -0 Z" data-pill="{&quot;x&quot;:540.0,&quot;y&quot;:722.0,&quot;width&quot;:225.0,&quot;height&quot;:26.0,&quot;smoothness&quot;:0.0}" id="pill2838" inkscape:label="bash-line2" data-category="shape" data-prim="pill" style="fill:#565F89"/></g><g inkscape:label="purple-card" id="g1138" transform="translate(60, 38)"><path d="M 790.6 432 c 19.042 0 28.563 0 35.836 3.706 a 34 34 0 0 1 14.859 14.859 c 3.706 7.273 3.706 16.794 3.706 35.836 L 845 527.6 c 0 19.042 0 28.563 -3.706 35.836 a 34 34 0 0 1 -14.859 14.859 c -7.273 3.706 -16.794 3.706 -35.836 3.706 L 464.4 582 c -19.042 0 -28.563 0 -35.836 -3.706 a 34 34 0 0 1 -14.859 -14.859 c -3.706 -7.273 -3.706 -16.794 -3.706 -35.836 L 410 486.4 c 0 -19.042 0 -28.563 3.706 -35.836 a 34 34 0 0 1 14.859 -14.859 c 7.273 -3.706 16.794 -3.706 35.836 -3.706 Z" data-squircle="{&quot;x&quot;:410.0,&quot;y&quot;:432.0,&quot;width&quot;:435.0,&quot;height&quot;:150.0,&quot;radius&quot;:34.0,&quot;smoothness&quot;:0.6}" id="squircle4850" inkscape:label="thought-card-bg" data-category="shape" data-prim="squircle" style="fill:#2C3A66;stroke:#3E4E82;stroke-width:3.0"/><circle cx="458.0" cy="489.0" r="20.0" id="circle2086" inkscape:label="brain-dot" data-category="shape" data-prim="circle" style="fill:#BB9AF7"/><path d="M 638 474 c 0 0 0 0 0 0 a 15 15 0 0 1 15 15 c 0 0 0 0 0 0 L 653 489 c 0 0 0 0 0 0 a 15 15 0 0 1 -15 15 c 0 0 0 0 0 0 L 513 504 c 0 0 0 0 -0 -0 a 15 15 0 0 1 -15 -15 c -0 -0 -0 -0 -0 -0 L 498 489 c 0 -0 0 -0 0 -0 a 15 15 0 0 1 15 -15 c 0 -0 0 -0 0 -0 Z" data-pill="{&quot;x&quot;:498.0,&quot;y&quot;:474.0,&quot;width&quot;:155.0,&quot;height&quot;:30.0,&quot;smoothness&quot;:0.0}" id="pill7152" inkscape:label="thought-title" data-category="shape" data-prim="pill" style="fill:#C0CAF5;fill-opacity:0.85"/><path d="M 760 532 c 0 0 0 0 0 0 a 12 12 0 0 1 12 12 c 0 0 0 0 0 0 L 772 544 c 0 0 0 0 -0 0 a 12 12 0 0 1 -12 12 c -0 0 -0 0 -0 0 L 464 556 c -0 0 -0 0 -0 -0 a 12 12 0 0 1 -12 -12 c -0 -0 -0 -0 -0 -0 L 452 544 c 0 -0 0 -0 0 -0 a 12 12 0 0 1 12 -12 c 0 -0 0 -0 0 -0 Z" data-pill="{&quot;x&quot;:452.0,&quot;y&quot;:532.0,&quot;width&quot;:320.0,&quot;height&quot;:24.0,&quot;smoothness&quot;:0.0}" id="pill9852" inkscape:label="thought-line" data-category="shape" data-prim="pill" style="fill:#565F89"/></g></g></g></svg>