<svg xmlns="http://www.w3.org/2000/svg" xmlns:inkscape="http://www.inkscape.org/namespaces/inkscape" xmlns:sodipodi="http://sodipodi.sourceforge.net/DTD/sodipodi-0.0.dtd" xmlns:xlink="http://www.w3.org/1999/xlink" width="1024.0" height="1024.0" viewBox="0 0 1024.0 1024.0" id="svg9557"><defs><filter x="-50%" y="-50%" width="200%" height="200%" id="filter1007" data-fx="[{&quot;kind&quot;:&quot;blur&quot;,&quot;params&quot;:{&quot;std_deviation&quot;:60.0}}]"><feGaussianBlur in="SourceGraphic" stdDeviation="60.0" result="e0"/><feMerge><feMergeNode in="e0"/></feMerge></filter><linearGradient x1="0.0" y1="0.0" x2="1024.0" y2="1024.0" gradientUnits="userSpaceOnUse" id="linearGradient5421" inkscape:label="prompt-fade"><stop offset="0.0" style="stop-color:#FFFFFF;stop-opacity:1.0"/><stop offset="0.42" style="stop-color:#FFFFFF;stop-opacity:1.0"/><stop offset="0.62" style="stop-color:#000000;stop-opacity:1.0"/><stop offset="1.0" style="stop-color:#000000;stop-opacity:1.0"/></linearGradient><linearGradient x1="0.0" y1="0.0" x2="1024.0" y2="1024.0" gradientUnits="userSpaceOnUse" id="linearGradient3230" inkscape:label="bubble-fade"><stop offset="0.0" style="stop-color:#000000;stop-opacity:1.0"/><stop offset="0.42" style="stop-color:#000000;stop-opacity:1.0"/><stop offset="0.62" style="stop-color:#FFFFFF;stop-opacity:1.0"/><stop offset="1.0" style="stop-color:#FFFFFF;stop-opacity:1.0"/></linearGradient><mask id="mask5819" inkscape:label="prompt-mask"><rect x="0.0" y="0.0" width="1024.0" height="1024.0" id="rect1756" inkscape:label="prompt-mask-rect" data-category="shape" data-prim="rect" style="fill:url(#linearGradient5421)"/></mask><mask id="mask9310" inkscape:label="bubble-mask"><rect x="0.0" y="0.0" width="1024.0" height="1024.0" id="rect7748" inkscape:label="bubble-mask-rect" data-category="shape" data-prim="rect" style="fill:url(#linearGradient1976)"/></mask><linearGradient x1="0.0" y1="0.0" x2="1024.0" y2="1024.0" gradientUnits="userSpaceOnUse" id="linearGradient1976" inkscape:label="bubble-fade2"><stop offset="0.0" style="stop-color:#000000;stop-opacity:1.0"/><stop offset="0.46" style="stop-color:#000000;stop-opacity:1.0"/><stop offset="0.75" style="stop-color:#FFFFFF;stop-opacity:1.0"/><stop offset="1.0" style="stop-color:#FFFFFF;stop-opacity:1.0"/></linearGradient><linearGradient x1="0.0" y1="0.0" x2="1024.0" y2="1024.0" gradientUnits="userSpaceOnUse" id="linearGradient269" inkscape:label="card-fade"><stop offset="0.0" style="stop-color:#000000;stop-opacity:1.0"/><stop offset="0.4" style="stop-color:#000000;stop-opacity:1.0"/><stop offset="0.53" style="stop-color:#FFFFFF;stop-opacity:1.0"/><stop offset="1.0" style="stop-color:#FFFFFF;stop-opacity:1.0"/></linearGradient><mask id="mask3359" inkscape:label="card-mask"><rect x="0.0" y="0.0" width="1024.0" height="1024.0" id="rect9871" inkscape:label="card-mask-rect" data-category="shape" data-prim="rect" style="fill:url(#linearGradient269)"/></mask><clipPath id="clipPath2212" inkscape:label="icon-squircle6"><path d="M 656 0 c 128.812 0 193.218 0 242.418 25.068 a 230 230 0 0 1 100.514 100.514 c 25.068 49.2 25.068 113.606 25.068 242.418 L 1024 656 c 0 128.812 0 193.218 -25.068 242.418 a 230 230 0 0 1 -100.514 100.514 c -49.2 25.068 -113.606 25.068 -242.418 25.068 L 368 1024 c -128.812 0 -193.218 0 -242.418 -25.068 a 230 230 0 0 1 -100.514 -100.514 c -25.068 -49.2 -25.068 -113.606 -25.068 -242.418 L 0 368 c 0 -128.812 0 -193.218 25.068 -242.418 a 230 230 0 0 1 100.514 -100.514 c 49.2 -25.068 113.606 -25.068 242.418 -25.068 Z" data-squircle="{&quot;x&quot;:0.0,&quot;y&quot;:0.0,&quot;width&quot;:1024.0,&quot;height&quot;:1024.0,&quot;radius&quot;:230.0,&quot;smoothness&quot;:0.6}" id="squircle1675" inkscape:label="icon-mask6" data-category="shape" data-prim="squircle" style="fill:#000000"/></clipPath><filter x="-50%" y="-50%" width="200%" height="200%" id="filter2590" data-fx="[{&quot;kind&quot;:&quot;gloss&quot;,&quot;params&quot;:{&quot;angle&quot;:120.0,&quot;offset&quot;:14,&quot;blur&quot;:3.0,&quot;rolloff&quot;:0.8,&quot;intensity&quot;:0.55,&quot;color&quot;:&quot;#FFD7DE&quot;}}]"><feOffset in="SourceAlpha" dx="6.999999999999997" dy="12.124355652982143" result="e0sh"/><feComposite in="SourceAlpha" in2="e0sh" operator="out" result="e0band"/><feGaussianBlur in="e0band" stdDeviation="3.0" result="e0soft"/><feImage href="data:image/svg+xml;utf8,%3Csvg%20xmlns%3D%22http%3A//www.w3.org/2000/svg%22%20width%3D%221%22%20height%3D%221%22%20viewBox%3D%220%200%201%201%22%3E%3ClinearGradient%20id%3D%22g%22%20x1%3D%220.25%22%20y1%3D%220.0669873%22%20x2%3D%220.75%22%20y2%3D%220.933013%22%3E%3Cstop%20offset%3D%220%22%20stop-color%3D%22%23ffffff%22%20stop-opacity%3D%221%22/%3E%3Cstop%20offset%3D%220.8%22%20stop-color%3D%22%23ffffff%22%20stop-opacity%3D%220%22/%3E%3C/linearGradient%3E%3Crect%20width%3D%221%22%20height%3D%221%22%20fill%3D%22url%28%23g%29%22/%3E%3C/svg%3E" width="100%" height="100%" preserveAspectRatio="none" result="e0ramp"/><feComposite in="e0soft" in2="e0ramp" operator="arithmetic" k1="1" k2="0" k3="0" k4="0" result="e0fade"/><feFlood flood-color="#FFD7DE" flood-opacity="0.55" result="e0c"/><feComposite in="e0c" in2="e0fade" operator="in" result="e0hi"/><feComposite in="e0hi" in2="SourceAlpha" operator="in" result="e0"/><feMerge><feMergeNode in="SourceGraphic"/><feMergeNode in="e0"/></feMerge></filter><linearGradient x1="745.0" y1="215.0" x2="930.0" y2="380.0" id="linearGradient3376" inkscape:label="pi-sheen"><stop offset="0.0" style="stop-color:#FFC7D0;stop-opacity:1.0"/><stop offset="0.5" style="stop-color:#F7768E;stop-opacity:1.0"/><stop offset="1.0" style="stop-color:#E85B78;stop-opacity:1.0"/></linearGradient><linearGradient x1="745.0" y1="215.0" x2="930.0" y2="380.0" id="linearGradient4495" inkscape:label="pi-sheen2"><stop offset="0.0" style="stop-color:#FFA7B4;stop-opacity:1.0"/><stop offset="0.45" style="stop-color:#F7768E;stop-opacity:1.0"/><stop offset="1.0" style="stop-color:#E1546D;stop-opacity:1.0"/></linearGradient><linearGradient x1="745.0" y1="215.0" x2="930.0" y2="380.0" id="linearGradient5246" inkscape:label="pi-sheen3"><stop offset="0.0" style="stop-color:#FE8798;stop-opacity:1.0"/><stop offset="0.5" style="stop-color:#F7768E;stop-opacity:1.0"/><stop offset="1.0" style="stop-color:#EA6A82;stop-opacity:1.0"/></linearGradient><linearGradient x1="748.0" y1="210.0" x2="928.0" y2="378.0" id="linearGradient5226" inkscape:label="pi-sheen4"><stop offset="0.0" style="stop-color:#FF9DAE;stop-opacity:1.0"/><stop offset="0.5" style="stop-color:#F7768E;stop-opacity:1.0"/><stop offset="1.0" style="stop-color:#B23A54;stop-opacity:1.0"/></linearGradient><linearGradient x1="748.0" y1="210.0" x2="928.0" y2="378.0" gradientUnits="userSpaceOnUse" id="linearGradient7086" inkscape:label="pi-sheen5"><stop offset="0.0" style="stop-color:#FF9DAE;stop-opacity:1.0"/><stop offset="0.5" style="stop-color:#F7768E;stop-opacity:1.0"/><stop offset="1.0" style="stop-color:#B23A54;stop-opacity:1.0"/></linearGradient></defs><g inkscape:label="icon-art" id="g2269" clip-path="url(#clipPath2212)"><rect x="0.0" y="0.0" width="1024.0" height="1024.0" id="rect7073" inkscape:label="bg" data-category="shape" data-prim="rect" style="fill:#131420"/><polygon points="1184.0,-160.0 1184.0,1184.0 -160.0,1184.0" id="polygon3440" inkscape:label="app-zone" data-category="shape" data-prim="polygon" style="fill:#2E3658;filter:url(#filter1007)"/><g inkscape:label="prompt-group" id="g895" mask="url(#mask5819)" transform="matrix(1.14 0 0 1.14 -44.2 -123.86)"><polyline points="150,288 258,368 150,448" id="polyline5529" inkscape:label="prompt-caret" data-category="connector" data-prim="polyline" style="fill:none;stroke:#7AA2F7;stroke-linecap:round;stroke-linejoin:round;stroke-width:42.0"/><path d="M 578 346 c 0 0 0 0 0 0 a 22 22 0 0 1 22 22 c 0 0 0 0 0 0 L 600 368 c 0 0 0 0 0 0 a 22 22 0 0 1 -22 22 c 0 0 0 0 0 0 L 322 390 c 0 0 0 0 -0 -0 a 22 22 0 0 1 -22 -22 c -0 -0 -0 -0 -0 -0 L 300 368 c 0 -0 0 -0 0 -0 a 22 22 0 0 1 22 -22 c 0 -0 0 -0 0 -0 Z" data-pill="{&quot;x&quot;:300.0,&quot;y&quot;:346.0,&quot;width&quot;:300.0,&quot;height&quot;:44.0,&quot;smoothness&quot;:0.0}" id="pill4004" inkscape:label="cmd-line" data-category="shape" data-prim="pill" style="fill:#7982A9"/><path d="M 315 500 c 0 0 0 0 0 0 a 15 15 0 0 1 15 15 c 0 0 0 0 0 0 L 330 515 c 0 0 0 0 0 0 a 15 15 0 0 1 -15 15 c 0 0 0 0 0 0 L 165 530 c 0 0 0 0 -0 -0 a 15 15 0 0 1 -15 -15 c -0 -0 -0 -0 -0 -0 L 150 515 c 0 -0 0 -0 0 -0 a 15 15 0 0 1 15 -15 c 0 -0 0 -0 0 -0 Z" data-pill="{&quot;x&quot;:150.0,&quot;y&quot;:500.0,&quot;width&quot;:180.0,&quot;height&quot;:30.0,&quot;smoothness&quot;:0.0}" id="pill2683" inkscape:label="out-line1" data-category="shape" data-prim="pill" style="fill:#565F89"/><path d="M 595 500 c 0 0 0 0 0 0 a 15 15 0 0 1 15 15 c 0 0 0 0 0 0 L 610 515 c 0 0 0 0 0 0 a 15 15 0 0 1 -15 15 c 0 0 0 0 0 0 L 365 530 c 0 0 0 0 -0 -0 a 15 15 0 0 1 -15 -15 c -0 -0 -0 -0 -0 -0 L 350 515 c 0 -0 0 -0 0 -0 a 15 15 0 0 1 15 -15 c 0 -0 0 -0 0 -0 Z" data-pill="{&quot;x&quot;:350.0,&quot;y&quot;:500.0,&quot;width&quot;:260.0,&quot;height&quot;:30.0,&quot;smoothness&quot;:0.0}" id="pill9970" inkscape:label="out-line2" data-category="shape" data-prim="pill" style="fill:#414A6B"/><path d="M 465 580 c 0 0 0 0 0 0 a 15 15 0 0 1 15 15 c 0 0 0 0 0 0 L 480 595 c 0 0 0 0 0 0 a 15 15 0 0 1 -15 15 c 0 0 0 0 0 0 L 195 610 c 0 0 0 0 -0 -0 a 15 15 0 0 1 -15 -15 c -0 -0 -0 -0 -0 -0 L 180 595 c 0 -0 0 -0 0 -0 a 15 15 0 0 1 15 -15 c 0 -0 0 -0 0 -0 Z" data-pill="{&quot;x&quot;:180.0,&quot;y&quot;:580.0,&quot;width&quot;:300.0,&quot;height&quot;:30.0,&quot;smoothness&quot;:0.0}" id="pill8305" inkscape:label="out-line3" data-category="shape" data-prim="pill" style="fill:#565F89"/></g><g inkscape:label="card-group" id="g6332" mask="url(#mask3359)" transform="matrix(1.14 0 0 1.14 -93.8 -92.4)"><path d="M 844.4 492 c 25.762 0 38.644 0 48.484 5.014 a 46 46 0 0 1 20.103 20.103 c 5.014 9.84 5.014 22.721 5.014 48.484 L 918 766.4 c 0 25.762 0 38.644 -5.014 48.484 a 46 46 0 0 1 -20.103 20.103 c -9.84 5.014 -22.721 5.014 -48.484 5.014 L 495.6 840 c -25.762 0 -38.644 0 -48.484 -5.014 a 46 46 0 0 1 -20.103 -20.103 c -5.014 -9.84 -5.014 -22.721 -5.014 -48.484 L 422 565.6 c 0 -25.762 0 -38.644 5.014 -48.484 a 46 46 0 0 1 20.103 -20.103 c 9.84 -5.014 22.721 -5.014 48.484 -5.014 Z" data-squircle="{&quot;x&quot;:422.0,&quot;y&quot;:492.0,&quot;width&quot;:496.0,&quot;height&quot;:348.0,&quot;radius&quot;:46.0,&quot;smoothness&quot;:0.6}" id="squircle149" inkscape:label="card-bg" data-category="shape" data-prim="squircle" style="fill:#38457C;stroke:#5E6AAC;stroke-width:7.0"/><circle cx="506.0" cy="572.0" r="44.0" id="circle35" inkscape:label="check-ring" data-category="shape" data-prim="circle" style="fill:none;stroke:#B6F06A;stroke-width:15.0"/><polyline points="482.0,573.0 500.0,594.0 534.0,550.0" id="polyline2955" inkscape:label="check-mark" data-category="connector" data-prim="polyline" style="fill:none;stroke:#B6F06A;stroke-linecap:round;stroke-linejoin:round;stroke-width:15.0"/><path d="M 789 549 c 0 0 0 0 0 0 a 23 23 0 0 1 23 23 c 0 0 0 0 0 0 L 812 572 c 0 0 0 0 -0 0 a 23 23 0 0 1 -23 23 c -0 0 -0 0 -0 0 L 611 595 c -0 0 -0 0 -0 -0 a 23 23 0 0 1 -23 -23 c -0 -0 -0 -0 -0 -0 L 588 572 c 0 -0 0 -0 0 -0 a 23 23 0 0 1 23 -23 c 0 -0 0 -0 0 -0 Z" data-pill="{&quot;x&quot;:588.0,&quot;y&quot;:549.0,&quot;width&quot;:224.0,&quot;height&quot;:46.0,&quot;smoothness&quot;:0.0}" id="pill3957" inkscape:label="card-title" data-category="shape" data-prim="pill" style="fill:#CBD4F7"/><path d="M 836 654 c 0 0 0 0 0 0 a 20 20 0 0 1 20 20 c 0 0 0 0 0 0 L 856 674 c 0 0 0 0 -0 0 a 20 20 0 0 1 -20 20 c -0 0 -0 0 -0 0 L 504 694 c -0 0 -0 0 -0 -0 a 20 20 0 0 1 -20 -20 c -0 -0 -0 -0 -0 -0 L 484 674 c 0 -0 0 -0 0 -0 a 20 20 0 0 1 20 -20 c 0 -0 0 -0 0 -0 Z" data-pill="{&quot;x&quot;:484.0,&quot;y&quot;:654.0,&quot;width&quot;:372.0,&quot;height&quot;:40.0,&quot;smoothness&quot;:0.0}" id="pill6577" inkscape:label="card-line1" data-category="shape" data-prim="pill" style="fill:#7D89BC"/><path d="M 764 722 c 0 0 0 0 0 0 a 20 20 0 0 1 20 20 c 0 0 0 0 0 0 L 784 742 c 0 0 0 0 -0 0 a 20 20 0 0 1 -20 20 c -0 0 -0 0 -0 0 L 504 762 c -0 0 -0 0 -0 -0 a 20 20 0 0 1 -20 -20 c -0 -0 -0 -0 -0 -0 L 484 742 c 0 -0 0 -0 0 -0 a 20 20 0 0 1 20 -20 c 0 -0 0 -0 0 -0 Z" data-pill="{&quot;x&quot;:484.0,&quot;y&quot;:722.0,&quot;width&quot;:300.0,&quot;height&quot;:40.0,&quot;smoothness&quot;:0.0}" id="pill7413" inkscape:label="card-line2" data-category="shape" data-prim="pill" style="fill:#7D89BC"/></g><text x="838.0" y="368.0" id="text7982" inkscape:label="pi-symbol" data-category="text" data-prim="text" style="fill:url(#linearGradient7086);font-family:&quot;Bitstream Vera Sans&quot;, &quot;DejaVu Sans&quot;, &quot;Bitstream Charter&quot;, &quot;DejaVu Serif&quot;, sans-serif;font-size:288.0;font-style:italic;font-weight:600;text-anchor:middle">&#960;</text></g></svg>